<?xml version="1.0" standalone="no"?>
<!DOCTYPE svg PUBLIC "-//W3C//DTD SVG 20010904//EN"
 "http://www.w3.org/TR/2001/REC-SVG-20010904/DTD/svg10.dtd">
<svg version="1.0" xmlns="http://www.w3.org/2000/svg"
 width="1262.000000pt" height="1280.000000pt" viewBox="0 0 1262.000000 1280.000000"
 preserveAspectRatio="xMidYMid meet">
<metadata>
Created by potrace 1.15, written by Peter Selinger 2001-2017
</metadata>
<g transform="translate(0.000000,1280.000000) scale(0.100000,-0.100000)"
fill="#000000" stroke="none">
<path d="M8503 12789 c-785 -121 -1485 -911 -1748 -1972 -66 -268 -93 -473
-102 -762 -13 -456 64 -875 232 -1247 98 -217 210 -383 365 -538 205 -205 415
-321 680 -377 124 -26 362 -24 490 4 254 56 477 166 704 346 451 360 794 936
965 1622 76 306 105 571 98 905 -10 460 -92 820 -269 1170 -100 199 -184 316
-333 465 -199 200 -405 316 -659 371 -85 19 -336 27 -423 13z"/>
<path d="M4245 12534 c-174 -23 -289 -56 -410 -116 -415 -208 -730 -650 -880
-1234 -70 -270 -97 -494 -96 -799 0 -526 108 -1010 325 -1460 132 -273 283
-492 466 -676 263 -263 547 -416 855 -458 379 -53 775 111 1063 439 273 312
452 741 529 1270 25 176 26 690 0 865 -103 706 -359 1280 -746 1679 -308 316
-621 473 -976 490 -55 2 -113 2 -130 0z"/>
<path d="M1105 9374 c-214 -30 -359 -88 -513 -204 -296 -223 -496 -618 -568
-1125 -22 -150 -25 -539 -5 -700 30 -248 87 -511 161 -735 282 -853 859 -1528
1475 -1728 140 -46 216 -57 375 -57 118 1 162 5 235 24 99 25 247 91 321 142
270 185 458 484 564 894 56 216 65 311 65 645 -1 284 -3 317 -28 471 -47 287
-113 528 -214 784 -329 832 -931 1443 -1546 1569 -79 17 -266 28 -322 20z"/>
<path d="M11262 8735 c-714 -129 -1396 -916 -1660 -1915 -128 -483 -141 -989
-37 -1401 127 -502 416 -856 795 -977 105 -34 178 -45 295 -45 131 0 226 15
355 55 255 80 497 237 727 470 138 139 217 237 329 405 277 414 458 900 530
1423 22 156 25 560 6 695 -48 337 -133 587 -276 805 -177 270 -434 446 -716
490 -88 13 -259 11 -348 -5z"/>
<path d="M6055 6009 c-456 -30 -1025 -158 -1285 -289 -179 -90 -290 -182 -615
-510 -132 -133 -283 -278 -335 -322 -149 -125 -438 -314 -953 -622 -831 -497
-1096 -691 -1201 -879 -124 -221 -188 -504 -188 -832 -1 -262 29 -458 103
-679 71 -214 152 -355 311 -541 527 -616 1387 -992 2663 -1164 451 -61 890
-93 2020 -148 438 -21 1329 -24 1590 -5 1050 75 1744 285 2288 695 135 102
334 294 414 402 136 181 193 376 193 658 0 169 -18 309 -60 477 -106 418 -249
670 -542 956 -139 136 -239 217 -587 477 -362 271 -491 378 -646 538 -135 139
-225 255 -471 604 -209 298 -332 451 -465 581 -139 135 -248 213 -404 289
-499 243 -1170 358 -1830 314z"/>
</g>
</svg>
